# xmcd
#
# Track frame offsets:
# 150
# 19240
# 32484
# 46270
# 56479
# 68183
# 77708
# 90797
# 104370
# 115660
# 131876
#
# Disc length: 1910 seconds
#
#
# Revision: 1
# Processed by: cddbd v1.5.1PL0 Copyright (c) Steve Scherf et al.
# Submitted via: FreeRIP 2.70 
#
DISCID=8407740b
DTITLE=Todo-Torto - Sertanejão Sacana
DYEAR=2002
DGENRE=Country
TTITLE0=Kenga! Kenga!
TTITLE1=Passo Fogo
TTITLE2=Essa Vaca eu Beijo
TTITLE3=Cai no Pau
TTITLE4=Pousada do Rufino
TTITLE5=Gonorréia Fudida
TTITLE6=Mete Mete
TTITLE7=Negão Preto
TTITLE8=Eu Furei
TTITLE9=Soco o Fumo
TTITLE10=Putinhas da Cidade
EXTD=YEAR: 2002
EXTT0=
EXTT1=
EXTT2=
EXTT3=
EXTT4=
EXTT5=
EXTT6=
EXTT7=
EXTT8=
EXTT9=
EXTT10=
PLAYORDER=
